<svg width="19" height="20" viewBox="0 0 19 20" fill="none" xmlns="http://www.w3.org/2000/svg">
<path d="M17.6429 7.9375H11.5357V1.75C11.5357 0.990742 10.928 0.375 10.1786 0.375H8.82143C8.07203 0.375 7.46429 0.990742 7.46429 1.75V7.9375H1.35714C0.607746 7.9375 0 8.55324 0 9.3125V10.6875C0 11.4468 0.607746 12.0625 1.35714 12.0625H7.46429V18.25C7.46429 19.0093 8.07203 19.625 8.82143 19.625H10.1786C10.928 19.625 11.5357 19.0093 11.5357 18.25V12.0625H17.6429C18.3923 12.0625 19 11.4468 19 10.6875V9.3125C19 8.55324 18.3923 7.9375 17.6429 7.9375Z" fill="#F8F8F8"/>
</svg>
