<svg width="27" height="27" viewBox="0 0 27 27" fill="none" xmlns="http://www.w3.org/2000/svg">
<path d="M23.5372 22.7499L26.4247 21.0874L17.8497 17.8499C17.6747 17.7624 17.4997 17.9374 17.5872 18.1124L20.781 26.6874L22.4435 23.8437L24.1935 25.5937C24.3247 25.7249 24.5435 25.8124 24.7185 25.8124C24.8935 25.8124 25.1122 25.7249 25.2435 25.5937C25.5497 25.2874 25.5497 24.8062 25.2435 24.4999L23.5372 22.7499Z" fill="#FE0944"/>
<path d="M17.2812 19.8623H15.5312V21.3936H17.2812V19.8623Z" fill="#FE0944"/>
<path d="M12.2935 19.8623H9.01221V21.3936H12.2935V19.8623Z" fill="#FE0944"/>
<path d="M5.7749 19.8623H4.0249V21.3936H5.7749V19.8623Z" fill="#FE0944"/>
<path d="M2.3623 19.4248H0.831055V20.6498C0.831055 21.0873 1.18105 21.4373 1.61855 21.4373H2.84355V19.9061H2.40605V19.4248H2.3623Z" fill="#FE0944"/>
<path d="M2.3623 15.2686H0.831055V17.0186H2.3623V15.2686Z" fill="#FE0944"/>
<path d="M2.3623 8.75H0.831055V12.0312H2.3623V8.75Z" fill="#FE0944"/>
<path d="M2.3623 3.71875H0.831055V5.46875H2.3623V3.71875Z" fill="#FE0944"/>
<path d="M0.831055 1.3126V2.5376H2.3623V2.1001H2.7998V0.568848H1.5748C1.18105 0.568848 0.831055 0.875098 0.831055 1.3126Z" fill="#FE0944"/>
<path d="M6.95605 0.568848H5.20605V2.1001H6.95605V0.568848Z" fill="#FE0944"/>
<path d="M13.5186 0.568848H10.2373V2.1001H13.5186V0.568848Z" fill="#FE0944"/>
<path d="M18.5059 0.568848H16.7559V2.1001H18.5059V0.568848Z" fill="#FE0944"/>
<path d="M20.1687 2.5374H21.7V1.3124C21.7 0.874902 21.35 0.524902 20.9125 0.524902H19.6875V2.05615H20.125V2.5374H20.1687Z" fill="#FE0944"/>
<path d="M21.6997 4.94385H20.1685V6.69385H21.6997V4.94385Z" fill="#FE0944"/>
<path d="M21.6997 9.93115H20.1685V13.2124H21.6997V9.93115Z" fill="#FE0944"/>
<path d="M21.6997 16.4497H20.1685V18.1997H21.6997V16.4497Z" fill="#FE0944"/>
</svg>
