<svg width="70" height="56" viewBox="0 0 70 56" fill="none" xmlns="http://www.w3.org/2000/svg">
<path d="M50.6388 13.9844C40.5804 13.9844 32.4268 11.0514 32.4268 7.43359V16.1681V29.5378H33.7172C36.4611 29.5378 38.6853 31.3171 38.6853 33.5121V36.022V41.8526V48.1176V48.56V48.7445V49.3714V49.8149V51.0697C38.6853 51.8706 38.3881 52.6154 37.8788 53.2395C41.165 54.4003 45.6689 55.1168 50.6389 55.1168C60.6973 55.1168 68.851 52.1838 68.851 48.5662V39.8317V16.168V7.4337C68.851 11.0514 60.6972 13.9844 50.6388 13.9844Z" fill="#DFF2FF"/>
<g opacity="0.15">
<path opacity="0.15" d="M41.3365 53.2398C41.8459 52.6158 42.1429 51.8709 42.1429 51.07V49.8151V49.3716V48.7448V48.5603V48.1178V41.8528V36.0223V33.5123C42.1429 31.3173 39.9186 29.5381 37.1751 29.5381H35.8843V16.1681V11.3467C33.62 10.2551 32.2793 8.90078 32.2793 7.43384V16.1683V29.538H33.5698C36.3136 29.538 38.5379 31.3172 38.5379 33.5122V36.0222V41.8527V48.1177V48.5602V48.7447V49.3715V49.815V51.0699C38.5379 51.8707 38.2406 52.6156 37.7314 53.2397C41.0175 54.4004 45.5215 55.117 50.4915 55.117C51.1007 55.117 51.7022 55.106 52.2959 55.085C48.0435 54.9347 44.2206 54.2587 41.3365 53.2398Z" fill="#057DCD"/>
</g>
<path d="M29.2613 29.5378H33.7168C36.4606 29.5378 38.6849 31.317 38.6849 33.5121V36.022C38.6849 38.217 36.4606 39.9964 33.7168 39.9964H6.11674C3.37307 39.9964 1.14893 38.217 1.14893 36.022V33.5121C1.14893 31.317 3.37293 29.5378 6.11674 29.5378H25.8551" fill="#DFF2FF"/>
<g opacity="0.15">
<path opacity="0.15" d="M4.76268 36.022V33.5121C4.76268 31.317 6.98668 29.5378 9.73049 29.5378H6.11674C3.37307 29.5378 1.14893 31.317 1.14893 33.5121V36.022C1.14893 38.217 3.37293 39.9964 6.11674 39.9964H9.73035C6.98682 39.9965 4.76268 38.217 4.76268 36.022Z" fill="#057DCD"/>
</g>
<path d="M33.717 39.9964H6.11674C3.37307 39.9964 1.14893 38.217 1.14893 36.0221V48.5601V49.8149V51.0698C1.14893 53.2647 3.37293 55.0441 6.11674 55.0441H33.7167C36.4605 55.0441 38.6848 53.2647 38.6848 51.0698V49.8149V48.5601V36.022C38.6851 38.2169 36.4606 39.9964 33.717 39.9964Z" fill="#DFF2FF"/>
<path d="M33.717 43.8387H6.11674C3.37307 43.8387 1.14893 42.9494 1.14893 41.8528V48.1178V48.7447V49.3716C1.14893 50.4681 3.37293 51.3575 6.11674 51.3575H33.7167C36.4605 51.3575 38.6848 50.4681 38.6848 49.3716V48.7447V48.1178V41.8528C38.6851 42.9494 36.4606 43.8387 33.717 43.8387Z" fill="#057DCD"/>
<path d="M34.0198 35.0649C34.0198 35.8452 33.2293 36.4779 32.2537 36.4779H26.2686C25.2932 36.4779 24.5024 35.8452 24.5024 35.0649V34.5154C24.5024 33.7351 25.2932 33.1025 26.2686 33.1025H32.2537C33.2293 33.1025 34.0198 33.7351 34.0198 34.5154V35.0649Z" fill="#DFF2FF"/>
<path d="M50.6395 13.9849C60.6976 13.9849 68.8512 11.052 68.8512 7.4341C68.8512 3.81619 60.6976 0.883301 50.6395 0.883301C40.5814 0.883301 32.4277 3.81619 32.4277 7.4341C32.4277 11.052 40.5814 13.9849 50.6395 13.9849Z" fill="#DFF2FF"/>
<g opacity="0.15">
<path opacity="0.15" d="M35.8853 7.43374C35.8853 4.03492 43.0827 1.24049 52.2949 0.915103C51.702 0.893994 51.1007 0.883057 50.4923 0.883057C40.4339 0.883057 32.2803 3.81606 32.2803 7.43374C32.2803 11.0515 40.4339 13.9845 50.4923 13.9845C51.1007 13.9845 51.702 13.9736 52.2949 13.9526C43.0828 13.6269 35.8853 10.8327 35.8853 7.43374Z" fill="#057DCD"/>
</g>
<path d="M42.4871 8.6908C44.1941 8.6908 45.5778 8.11096 45.5778 7.39569C45.5778 6.68043 44.1941 6.10059 42.4871 6.10059C40.7802 6.10059 39.3965 6.68043 39.3965 7.39569C39.3965 8.11096 40.7802 8.6908 42.4871 8.6908Z" fill="#DFF2FF"/>
<path d="M50.6388 19.4123C40.5804 19.4123 32.4268 17.0276 32.4268 14.0862V22.0362V29.5381H33.7172C36.4611 29.5381 38.6853 31.3173 38.6853 33.5124V36.0223V41.8529V48.1791C41.8841 48.9937 46.0643 49.487 50.6389 49.487C60.6973 49.487 68.851 47.1023 68.851 44.1609V35.4554V22.0362V14.0862C68.851 17.0276 60.6972 19.4123 50.6388 19.4123Z" fill="#057DCD"/>
<g opacity="0.15">
<path opacity="0.15" d="M42.1429 48.179V41.8528V36.0222V33.5123C42.1429 31.3172 39.9186 29.538 37.1751 29.538H35.8843V22.0361V17.2677C33.62 16.3799 32.2793 15.2788 32.2793 14.0862V22.0362V29.5381H33.5698C36.3136 29.5381 38.5379 31.3173 38.5379 33.5124V36.0223V41.8529V48.1791C41.7367 48.9937 45.9169 49.487 50.4915 49.487C51.1022 49.487 51.7059 49.4781 52.3015 49.4609C48.4323 49.35 44.9179 48.8857 42.1429 48.179Z" fill="#057DCD"/>
</g>
<path d="M49.7996 23.717C48.6276 22.7794 45.2275 23.9794 42.2052 26.3972C39.1829 28.815 37.683 31.5351 38.855 32.4727C40.027 33.4103 43.4271 32.2104 46.4494 29.7926C49.4716 27.3747 50.9716 24.6546 49.7996 23.717Z" fill="#DFF2FF"/>
<path d="M49.8013 23.7166C50.9736 24.6543 49.4731 27.3742 46.451 29.7921C43.4287 32.21 40.0287 33.4101 38.8564 32.4727C39.1913 32.8272 39.4415 33.2667 39.8493 33.5932C42.5503 35.754 46.1276 36.6412 49.1004 36.1285L50.5644 37.2997C51.943 38.4024 54.1782 38.4027 55.5569 37.2997L55.7647 37.1334C57.1434 36.0304 57.1434 34.2423 55.7647 33.1394L54.3007 31.9681C54.9415 29.5899 53.8325 26.7281 51.1316 24.5674C50.7235 24.2407 50.2446 23.9844 49.8013 23.7166Z" fill="#DFF2FF"/>
<path d="M55.475 38.7429L58.0017 40.7644L57.8721 41.8825C57.8175 42.3215 57.9999 42.7757 58.4203 43.1119C59.164 43.7067 60.3692 43.7067 61.113 43.1119C61.4884 42.8117 61.6737 42.4173 61.6704 42.0237C62.1623 42.0266 62.6552 41.8782 63.0306 41.5778C63.7743 40.983 63.7743 40.0186 63.0306 39.4237C62.6647 39.1309 62.1866 38.9825 61.7071 38.9779H61.7069C61.5766 38.9767 61.4464 38.9857 61.3179 39.0057L60.1014 39.093L56.5235 36.2305C56.3512 36.5585 56.0991 36.8658 55.7652 37.1329L55.5574 37.2993C55.2233 37.5663 54.8391 37.7682 54.4292 37.9058" fill="#DFF2FF"/>
<path d="M23.3989 34.5155V35.065C23.3989 36.331 24.6864 37.361 26.2689 37.361H32.2541C33.8364 37.361 35.1241 36.331 35.1241 35.065V34.5155C35.1241 33.2495 33.8366 32.2195 32.2541 32.2195H26.2689C24.6864 32.2195 23.3989 33.2495 23.3989 34.5155ZM32.9162 34.5155V35.065C32.9162 35.3571 32.6191 35.5948 32.2539 35.5948H26.2688C25.9036 35.5948 25.6065 35.3571 25.6065 35.065V34.5155C25.6065 34.2233 25.9036 33.9857 26.2688 33.9857H32.2539C32.6192 33.9856 32.9162 34.2232 32.9162 34.5155Z" fill="#057DCD"/>
<path d="M63.9695 1.99631C60.3902 0.708969 55.656 0 50.6387 0C45.6214 0 40.8873 0.708969 37.3081 1.99631C33.4484 3.38461 31.3228 5.31573 31.3228 7.43378V14.0861V28.6548H29.2615C28.6518 28.6548 28.1577 29.0501 28.1577 29.5379C28.1577 30.0257 28.6518 30.421 29.2615 30.421H32.4267H33.7172C35.8481 30.421 37.5814 31.8077 37.5814 33.5122V36.0221C37.5814 37.7266 35.848 39.1134 33.7172 39.1134H6.11709C3.98647 39.1134 2.25314 37.7266 2.25314 36.0221V33.5122C2.25314 31.8077 3.98647 30.421 6.11709 30.421H25.8555C26.4652 30.421 26.9593 30.0257 26.9593 29.5379C26.9593 29.0501 26.4652 28.6548 25.8555 28.6548H6.11709C2.76926 28.6548 0.0454102 30.8339 0.0454102 33.5122V36.0221V41.8527V49.3715V51.0699C0.0454102 53.7483 2.76912 55.9274 6.11709 55.9274H33.7171C35.5083 55.9274 37.1203 55.3034 38.2326 54.3131C41.6848 55.4031 46.0484 56 50.6386 56C55.6559 56 60.3901 55.291 63.9692 54.0037C67.8289 52.6154 69.9545 50.6843 69.9545 48.5662V44.1606V14.0861V7.43378C69.9546 5.31573 67.8291 3.38461 63.9695 1.99631ZM38.2136 3.60719C41.514 2.42003 45.9269 1.76619 50.6387 1.76619C55.3506 1.76619 59.7635 2.42003 63.064 3.60719C66.0401 4.67775 67.7469 6.0725 67.7469 7.43378C67.7469 8.79506 66.04 10.1899 63.064 11.2604C59.7633 12.4476 55.3507 13.1015 50.6387 13.1015C45.9267 13.1015 41.514 12.4476 38.2135 11.2604C35.2374 10.1898 33.5306 8.79506 33.5306 7.43378C33.5306 6.0725 35.2375 4.67753 38.2136 3.60719ZM67.747 10.965V14.0861C67.747 16.1835 60.4305 18.5292 50.6389 18.5292C40.8472 18.5292 33.5307 16.1835 33.5307 14.0861V10.965C33.5422 10.9735 33.555 10.9816 33.5667 10.99C33.6646 11.061 33.7653 11.1314 33.8692 11.2011C33.8881 11.2137 33.9063 11.2264 33.9253 11.239C34.0393 11.3145 34.1574 11.389 34.2786 11.4627C34.3039 11.4781 34.3294 11.4933 34.3551 11.5087C34.6072 11.6596 34.8741 11.8069 35.1559 11.9505C35.1839 11.9648 35.2117 11.9791 35.2398 11.9932C35.3796 12.0633 35.5223 12.1326 35.669 12.2008C35.6902 12.2106 35.7121 12.2204 35.7337 12.2302C35.8709 12.2933 36.0112 12.3555 36.1546 12.4171C36.1781 12.4273 36.2011 12.4375 36.2248 12.4475C36.3792 12.5132 36.5377 12.5775 36.6989 12.6411C36.7324 12.6544 36.7664 12.6674 36.8003 12.6806C36.9666 12.7451 37.1352 12.8089 37.3085 12.8714C40.8875 14.1587 45.6218 14.8677 50.6391 14.8677C55.6565 14.8677 60.3906 14.1587 63.9698 12.8714C64.1431 12.8089 64.3118 12.7451 64.4782 12.6806C64.512 12.6676 64.5456 12.6545 64.5791 12.6412C64.7407 12.5777 64.8992 12.5132 65.054 12.4474C65.0773 12.4376 65.1 12.4274 65.1231 12.4176C65.267 12.3559 65.4076 12.2933 65.5453 12.23C65.5664 12.2204 65.588 12.2106 65.6089 12.201C65.7557 12.1328 65.8989 12.0633 66.0386 11.9931C66.0666 11.9791 66.0941 11.965 66.1217 11.9509C66.4039 11.8071 66.6709 11.6596 66.9234 11.5085C66.9487 11.4933 66.974 11.4783 66.999 11.463C67.1205 11.3891 67.2387 11.3144 67.3529 11.2388C67.3716 11.2265 67.3897 11.2139 67.4082 11.2014C67.5124 11.1315 67.6137 11.061 67.7119 10.9896C67.723 10.9814 67.7355 10.9733 67.747 10.965ZM33.7172 28.6548H33.5306V17.0906C36.9839 19.1883 43.961 20.2953 50.6387 20.2953C57.3165 20.2953 64.2935 19.1884 67.7469 17.0906V44.1606C67.7469 46.258 60.4304 48.6037 50.6387 48.6037C46.6885 48.6037 42.8732 48.2216 39.789 47.5221V41.8525V36.0219V34.7495C42.008 36.2836 44.7336 37.1528 47.4015 37.1528C47.8502 37.1528 48.2939 37.1278 48.7271 37.0782L49.7842 37.9239C50.6594 38.624 51.8233 39.0096 53.061 39.0097C53.0611 39.0097 53.061 39.0097 53.0611 39.0097C53.5146 39.0097 53.9579 38.9574 54.381 38.8573C54.4114 39.0437 54.5155 39.2238 54.6945 39.367L56.8549 41.0955L56.7739 41.7948C56.684 42.5165 56.9996 43.2239 57.64 43.7361C58.2264 44.2051 58.9965 44.4397 59.7666 44.4396C60.5366 44.4396 61.3072 44.2052 61.8933 43.7362C62.2322 43.4651 62.4801 43.141 62.625 42.7872C63.0672 42.6713 63.4721 42.4729 63.8109 42.2019C64.379 41.7476 64.6921 41.1432 64.6921 40.5005C64.6921 39.8577 64.379 39.2534 63.8112 38.7991C63.253 38.3525 62.5103 38.1022 61.719 38.0947C61.5351 38.0941 61.3496 38.1049 61.1692 38.1298L60.5168 38.1765L57.7797 35.9867C57.8604 35.7109 57.9029 35.4261 57.9029 35.1358C57.9029 34.1457 57.4208 33.2147 56.5457 32.5146L55.4888 31.669C55.9639 29.0318 54.6272 26.1142 51.9123 23.9422C51.5368 23.6421 51.124 23.3994 50.7596 23.1851C50.6762 23.1361 50.5939 23.0874 50.5121 23.0383C50.1707 22.7876 49.587 22.5141 48.6663 22.5141C46.7129 22.5141 43.9388 23.7624 41.4269 25.772C39.8708 27.0168 38.6357 28.3881 37.949 29.6329C37.8949 29.7311 37.8464 29.8262 37.8004 29.9198C36.7212 29.1345 35.2878 28.6548 33.7172 28.6548ZM2.25314 44.0995C3.28838 44.492 4.62344 44.7216 6.11709 44.7216H33.7171C35.2107 44.7216 36.5459 44.492 37.5813 44.0995V48.1789V49.3715C37.5813 49.6917 36.2272 50.4745 33.7171 50.4745H6.11709C3.60707 50.4745 2.25314 49.6917 2.25314 49.3715V44.0995ZM50.7091 26.5557C50.8554 26.2906 50.9696 26.0431 51.0576 25.8117C52.923 27.6092 53.7468 29.8339 53.2219 31.7821C53.143 32.0752 53.2554 32.3805 53.5204 32.5925L54.9845 33.764C55.4426 34.1305 55.695 34.618 55.695 35.1364C55.695 35.3951 55.6321 35.646 55.5122 35.8781C55.5102 35.8818 55.5076 35.8853 55.5055 35.889C55.4447 36.0047 55.3707 36.1146 55.284 36.2179C55.2678 36.2373 55.2489 36.2553 55.2317 36.2743C55.2031 36.3057 55.1755 36.3377 55.1446 36.3678C55.0944 36.4167 55.0409 36.4639 54.9843 36.5093L54.7767 36.6754C54.7202 36.7206 54.6614 36.7631 54.6004 36.8033C54.5481 36.8377 54.4932 36.8695 54.4377 36.9003C54.4295 36.9049 54.422 36.91 54.4138 36.9145C54.2845 36.9841 54.1468 37.0435 54.0019 37.092C53.9957 37.0941 53.9901 37.0967 53.9841 37.0988C53.6952 37.1938 53.3831 37.2438 53.0611 37.2438C52.4129 37.2438 51.8034 37.0419 51.3453 36.6753L49.8813 35.5041C49.672 35.3368 49.3904 35.2455 49.1006 35.2455C49.0234 35.2455 48.9452 35.2521 48.8681 35.2653C48.3994 35.3463 47.9061 35.3871 47.4015 35.3871C45.3118 35.3871 43.1557 34.7087 41.3614 33.505C41.3637 33.5045 41.3661 33.5037 41.3684 33.5032C41.4661 33.4807 41.5651 33.4556 41.6649 33.429C41.6875 33.423 41.71 33.4168 41.7327 33.4106C41.8335 33.3828 41.9349 33.3536 42.0375 33.3216C42.0431 33.3199 42.0488 33.318 42.0544 33.3162C42.153 33.2853 42.2527 33.252 42.353 33.2174C42.3757 33.2095 42.3984 33.2018 42.4211 33.1938C42.5246 33.1572 42.6287 33.119 42.7335 33.0786C42.7502 33.0722 42.767 33.0653 42.7837 33.0588C42.8793 33.0216 42.9752 32.9826 43.0718 32.9422C43.0914 32.934 43.111 32.9259 43.1308 32.9176C43.2375 32.8724 43.3448 32.8251 43.4525 32.7761C43.4741 32.7663 43.4957 32.7562 43.5175 32.7462C43.6189 32.6995 43.7208 32.6514 43.8229 32.6014C43.8342 32.5958 43.8455 32.5907 43.8567 32.5851C43.967 32.5309 44.0777 32.4743 44.1889 32.4165C44.2123 32.4043 44.2356 32.392 44.2589 32.3796C44.4843 32.2606 44.711 32.1343 44.9382 32.0007C44.9605 31.9877 44.9827 31.9747 45.005 31.9616C45.1178 31.8947 45.2304 31.8264 45.3433 31.756C45.3561 31.7482 45.3688 31.74 45.3815 31.732C45.4868 31.666 45.5919 31.5985 45.697 31.5298C45.7155 31.5177 45.7337 31.506 45.7521 31.4939C45.8649 31.4196 45.9773 31.3436 46.0897 31.266C46.1083 31.2533 46.1267 31.2402 46.1453 31.2273C46.2523 31.1531 46.3588 31.0776 46.4651 31.0005C46.475 30.9934 46.4848 30.9865 46.4945 30.9793C46.6074 30.8971 46.7198 30.8131 46.8321 30.7279C46.8529 30.7122 46.8735 30.6962 46.8941 30.6803C47.0071 30.5938 47.1197 30.5063 47.2317 30.4168C47.3409 30.3294 47.4483 30.2412 47.5542 30.1525C47.5657 30.143 47.5769 30.1331 47.5883 30.1236C47.6886 30.0394 47.7872 29.9548 47.8845 29.8697C47.8852 29.869 47.8862 29.8682 47.8869 29.8676C49.1333 28.7765 50.1222 27.6201 50.7091 26.5557ZM58.7821 40.1401L56.2554 38.1186C56.2268 38.0957 56.197 38.0743 56.1663 38.0544C56.1664 38.0543 56.1665 38.0542 56.1667 38.0541C56.2248 38.012 56.2819 37.9685 56.3379 37.9238L56.5455 37.7577C56.5999 37.7141 56.6529 37.6696 56.7041 37.6242L59.3205 39.7175C59.5518 39.9025 59.8746 39.996 60.1998 39.9726L61.4163 39.8853C61.454 39.8826 61.4915 39.8783 61.5285 39.8728C61.5818 39.8643 61.638 39.8613 61.6937 39.8608C61.9039 39.8629 62.1015 39.9294 62.2498 40.0482C62.4008 40.169 62.4843 40.3298 62.4843 40.5008C62.4843 40.6717 62.4011 40.8325 62.2497 40.9534C62.0988 41.0744 61.8978 41.1408 61.6836 41.1408C61.6793 41.1408 61.6745 41.1409 61.67 41.1408C61.3774 41.1408 61.0966 41.2337 60.8894 41.3993C60.6805 41.5665 60.5641 41.7936 60.5662 42.0301C60.5678 42.2033 60.4847 42.3656 60.3321 42.4876C60.02 42.7371 59.5125 42.7371 59.2006 42.4876C59.0301 42.3513 58.9462 42.1628 58.9709 41.9642L59.1005 40.8461C59.1312 40.5845 59.0144 40.3257 58.7821 40.1401ZM49.0207 24.3409C49.0207 24.3409 49.0208 24.341 49.0208 24.3411C49.0246 24.3441 49.0279 24.3487 49.0316 24.3523C49.0959 24.4225 49.1369 24.6484 49.0327 25.0322C48.885 25.5347 48.5011 26.2687 47.7784 27.1367C47.7395 27.1831 47.7009 27.2295 47.6605 27.2759C47.6602 27.2764 47.6598 27.2768 47.6592 27.2773C47.172 27.8391 46.5841 28.4111 45.9308 28.9552C45.8459 29.0257 45.7595 29.0965 45.6707 29.1676C43.464 30.9329 41.3574 31.7971 40.2087 31.8982C40.132 31.9049 40.0598 31.9084 39.9919 31.9084C39.7989 31.9084 39.6747 31.8781 39.6371 31.848C39.5292 31.7617 39.4628 31.2636 39.9688 30.3463C40.5395 29.3115 41.6399 28.0995 42.9878 27.0214C45.3414 25.1384 47.5814 24.2807 48.6662 24.2807C48.8588 24.2807 48.9827 24.3108 49.0207 24.3409ZM33.7172 40.8795C33.8159 40.8795 33.9139 40.8773 34.0115 40.8734C34.0435 40.8722 34.075 40.87 34.1068 40.8684C34.1725 40.8651 34.238 40.8614 34.303 40.8564C34.3401 40.8535 34.3767 40.8499 34.4138 40.8465C34.4732 40.8412 34.5326 40.8353 34.5915 40.8284C34.6295 40.824 34.6673 40.8191 34.7051 40.8142C34.763 40.8065 34.8204 40.7984 34.8777 40.7894C34.9147 40.7836 34.9516 40.7777 34.9887 40.7715C35.0471 40.7615 35.1052 40.7505 35.163 40.7392C35.1973 40.7326 35.2318 40.726 35.2658 40.7188C35.3288 40.7054 35.391 40.691 35.4531 40.6761C35.4813 40.6695 35.5094 40.6633 35.5375 40.6562C35.6265 40.6338 35.7146 40.6101 35.8019 40.5845C35.8023 40.5844 35.8027 40.5842 35.8032 40.5841C35.8917 40.5582 35.9789 40.5304 36.0653 40.5012C36.0905 40.4927 36.1151 40.4834 36.1401 40.4748C36.2004 40.4537 36.2606 40.4322 36.3196 40.4098C36.3505 40.398 36.3809 40.3856 36.4115 40.3734C36.4641 40.3524 36.5165 40.3313 36.5682 40.3091C36.6005 40.2953 36.6322 40.2812 36.664 40.2671C36.7135 40.2451 36.7625 40.2224 36.8111 40.1992C36.843 40.1842 36.8746 40.1688 36.9059 40.1533C36.9541 40.1294 37.0017 40.1048 37.049 40.0798C37.0791 40.0641 37.1092 40.0484 37.1389 40.0321C37.1886 40.0049 37.2373 39.9768 37.2858 39.9485C37.3117 39.9334 37.3379 39.9188 37.3633 39.9034C37.4254 39.866 37.4863 39.8275 37.5464 39.7882C37.5575 39.781 37.569 39.7742 37.5798 39.767C37.5802 39.7667 37.5809 39.7665 37.5813 39.766V41.8526C37.5813 42.1727 36.2272 42.9555 33.7171 42.9555H6.11709C3.60707 42.9555 2.25314 42.1727 2.25314 41.8526V39.7661C2.25396 39.7667 2.25506 39.7673 2.25615 39.768C2.26121 39.7713 2.26641 39.7744 2.2716 39.7777C2.3375 39.8209 2.40449 39.863 2.47258 39.9042C2.49609 39.9184 2.52043 39.9319 2.54436 39.9458C2.59467 39.9753 2.64525 40.0045 2.69693 40.0327C2.72578 40.0484 2.75504 40.0636 2.78416 40.079C2.83215 40.1043 2.88041 40.1294 2.92949 40.1535C2.96066 40.169 2.99211 40.1842 3.02369 40.1991C3.07209 40.2222 3.12117 40.2448 3.17039 40.2667C3.20266 40.2811 3.23492 40.2954 3.26732 40.3094C3.31818 40.3312 3.36973 40.352 3.42141 40.3726C3.45285 40.3852 3.4843 40.3979 3.51615 40.41C3.57371 40.4319 3.63195 40.4527 3.69047 40.4731C3.71727 40.4825 3.74365 40.4925 3.77059 40.5015C3.85645 40.5303 3.94313 40.558 4.03076 40.5836C4.03568 40.585 4.04047 40.5862 4.04539 40.5876C4.12824 40.6118 4.21191 40.6345 4.29627 40.6557C4.32594 40.6632 4.35629 40.6698 4.38637 40.677C4.44652 40.6913 4.50695 40.7053 4.56779 40.7183C4.60307 40.7258 4.63875 40.7325 4.6743 40.7396C4.7309 40.7506 4.78791 40.7613 4.8452 40.7713C4.88279 40.7777 4.92053 40.7837 4.95854 40.7897C5.01486 40.7984 5.0716 40.8065 5.12848 40.814C5.1669 40.8191 5.20531 40.824 5.24387 40.8285C5.30225 40.8353 5.36117 40.8411 5.42024 40.8465C5.45729 40.8499 5.49447 40.8536 5.53166 40.8565C5.5966 40.8614 5.66195 40.8651 5.72744 40.8684C5.7593 40.87 5.79088 40.8722 5.82287 40.8734C5.92049 40.8772 6.01852 40.8795 6.11709 40.8795H33.7171H33.7172ZM33.7172 54.1612H6.11709C4.23119 54.1612 2.65742 53.0743 2.32068 51.6425C3.34635 52.0198 4.65516 52.2406 6.11709 52.2406H33.7171C35.1782 52.2406 36.4867 52.0202 37.5122 51.6432C37.5062 51.6689 37.5014 51.6947 37.4947 51.7202C37.4909 51.7345 37.4865 51.7488 37.4824 51.7631C37.4671 51.8165 37.45 51.8695 37.431 51.922C37.4258 51.9362 37.4212 51.9505 37.4158 51.9646C37.3925 52.0264 37.3666 52.0878 37.3385 52.1483C37.332 52.1623 37.3247 52.1759 37.318 52.1898C37.2943 52.2385 37.269 52.2865 37.2422 52.3341C37.2328 52.3509 37.2233 52.368 37.2135 52.3847C37.1801 52.4413 37.1449 52.4972 37.1071 52.5523C37.097 52.5672 37.0859 52.5815 37.0756 52.5963C37.0448 52.6393 37.0127 52.682 36.9793 52.724C36.2931 53.5869 35.0877 54.1612 33.7172 54.1612ZM63.064 52.3928C59.7635 53.58 55.3507 54.2338 50.6387 54.2338C46.4777 54.2338 42.5391 53.7216 39.4 52.7817C39.4041 52.7731 39.4076 52.7644 39.4115 52.7556C39.4233 52.7301 39.4341 52.7043 39.4454 52.6786C39.4653 52.6331 39.4852 52.5877 39.5034 52.5419C39.5156 52.5112 39.5269 52.4801 39.5384 52.449C39.5539 52.4074 39.569 52.3657 39.583 52.3237C39.5942 52.2901 39.6046 52.2563 39.615 52.2225C39.6273 52.182 39.6392 52.1415 39.6501 52.1008C39.6595 52.0659 39.6686 52.031 39.677 51.9959C39.6869 51.955 39.696 51.914 39.7045 51.8728C39.7119 51.8378 39.7191 51.8031 39.7254 51.7678C39.7332 51.7246 39.7398 51.6812 39.7462 51.6377C39.751 51.6043 39.7563 51.5713 39.7603 51.5377C39.7662 51.4883 39.7704 51.4386 39.7744 51.3887C39.7767 51.3609 39.7798 51.3332 39.7815 51.3053C39.7861 51.227 39.789 51.1486 39.789 51.0698V49.3715V49.3513C42.9528 50.011 46.742 50.3699 50.6387 50.3699C57.3174 50.3699 64.2941 49.2626 67.7469 47.1642V48.5663C67.747 49.9277 66.0401 51.3225 63.064 52.3928Z" fill="#057DCD"/>
<path d="M42.4865 9.57369C44.2656 9.57369 45.7184 9.05525 46.3461 8.27858H49.6982C50.3079 8.27858 50.802 7.8833 50.802 7.39549C50.802 6.90768 50.3079 6.51239 49.6982 6.51239H46.3461C45.7184 5.73561 44.2656 5.21729 42.4865 5.21729C40.0952 5.21729 38.292 6.15364 38.292 7.39549C38.292 8.63722 40.0952 9.57369 42.4865 9.57369ZM42.4865 6.98336C43.5205 6.98336 44.1932 7.23602 44.4177 7.39549C44.1932 7.55474 43.5207 7.80761 42.4865 7.80761C41.4525 7.80761 40.7799 7.55485 40.5554 7.39549C40.7799 7.23602 41.4522 6.98336 42.4865 6.98336Z" fill="#057DCD"/>
<g opacity="0.15">
<path opacity="0.15" d="M4.77369 51.0698V49.815V49.3714V48.7446V48.5601V48.1177V41.8527V39.8483C2.68299 39.3793 1.14941 37.8444 1.14941 36.0222V41.8528V48.1178V48.5602V48.7447V49.3716V49.8151V51.0699C1.14941 53.2649 3.37342 55.0443 6.11723 55.0443H9.74151C6.9977 55.0442 4.77369 53.2648 4.77369 51.0698Z" fill="#057DCD"/>
</g>
</svg>
