<svg width="94" height="84" viewBox="0 0 94 84" fill="none" xmlns="http://www.w3.org/2000/svg">
<rect width="94" height="84" fill="#EBEFF8"/>
<path d="M80.0558 20.4621C80.119 19.795 79.901 19.1025 79.3859 18.5452C78.833 17.9485 78.931 17.059 79.6008 16.5664C79.9262 16.3268 80.3338 16.2173 80.7512 16.2511C81.168 16.2877 81.5443 16.4679 81.8125 16.7578C82.3655 17.3545 82.2707 18.244 81.6008 18.7366C80.9752 19.1954 80.615 19.8316 80.5329 20.4959L80.0558 20.4621Z" fill="#DFF2FF"/>
<path d="M83.0925 23.4122C83.8858 23.5107 84.7228 23.3221 85.3927 22.832C85.715 22.5928 86.1229 22.4802 86.5431 22.5168C86.9598 22.5534 87.3393 22.7338 87.6044 23.0206C88.1605 23.6202 88.0626 24.5069 87.3896 25.0023C87.067 25.2418 86.6597 25.3513 86.2426 25.3147C85.8255 25.2809 85.4492 25.1008 85.181 24.8137C84.6786 24.2679 83.955 23.9242 83.1683 23.8566C83.1212 23.851 83.0735 23.851 83.0229 23.8485L83.0925 23.4122Z" fill="#DFF2FF"/>
<path d="M78.985 22.2805C79.6264 21.8076 79.9901 21.1462 80.0564 20.4622L80.5335 20.4959C80.524 20.5916 80.5177 20.6873 80.5177 20.783C80.5177 21.3798 80.7389 21.9765 81.197 22.4719C81.6931 23.0068 82.3756 23.3248 83.0928 23.4124L83.0233 23.8487C82.284 23.8177 81.5572 24.0314 80.9854 24.451L73.8066 29.7288C73.5507 29.3238 73.2569 28.9351 72.9156 28.5663C72.6158 28.2398 72.2426 27.8992 71.7939 27.5671L78.985 22.2805Z" fill="#DFF2FF"/>
<path d="M72.6276 43.3861C73.4109 45.4325 73.8157 47.5324 73.8157 49.646C73.8157 60.5028 62.251 66.0086 39.4451 66.0086C18.8189 66.0086 10.4048 61.2684 10.4048 49.646C10.4048 35.3833 23.432 23.7781 39.4451 23.7781C44.1719 23.7781 49.1831 24.8083 53.8783 26.6574C49.2652 27.924 44.9902 29.8663 42.4692 31.7212C35.3916 36.9258 34.3802 46.2908 40.2163 52.6016C43.3851 56.0331 48.068 58.0007 53.0603 58.0007C56.909 58.0007 60.6655 56.7985 63.6388 54.6116C66.5106 52.5005 70.22 48.1432 72.6276 43.3861Z" fill="#9BCBEB"/>
<path d="M68.3177 31.9407C69.651 33.3847 69.3066 36.7453 67.4172 40.7145C65.5909 44.5511 62.4787 48.5819 59.8467 50.5185C57.9383 51.9203 55.5274 52.6916 53.0598 52.6916C49.8559 52.6916 46.8511 51.4308 44.8131 49.2265C41.0658 45.1732 41.7167 39.1579 46.2602 35.8164C49.641 33.3281 57.4611 30.5583 63.2777 30.5583C65.7047 30.5586 67.493 31.0512 68.3177 31.9407Z" fill="#9BCBEB"/>
<path d="M92.2048 19.6485C94.8459 22.5027 94.3878 26.7415 91.1811 29.0975C89.6328 30.2378 87.677 30.7724 85.6738 30.6009C84.7066 30.5162 83.7843 30.2744 82.9467 29.8913L75.0511 35.6955C75.0511 35.7039 75.0511 35.7121 75.0511 35.7208C78.1409 40.0557 79.7744 44.7986 79.7744 49.6458C79.7744 57.1698 75.6862 63.0105 67.9258 66.6417H86.6277C88.2739 66.6417 89.6072 67.8298 89.6072 69.2963C89.6072 70.7628 88.2739 71.9507 86.6277 71.9507H3.05864C1.41563 71.9507 0.0791016 70.7628 0.0791016 69.2963C0.0791016 67.8298 1.41531 66.6417 3.05864 66.6417H13.9468C7.64328 63.0753 4.44889 57.3671 4.44889 49.6458C4.44889 32.4559 20.146 18.4688 39.4451 18.4688C47.597 18.4688 56.109 20.912 63.3446 25.2528C64.0903 25.2556 64.7857 25.2922 65.4363 25.3597L73.3702 19.5272C72.5581 17.0304 73.4207 14.2268 75.8094 12.4732C77.3608 11.3301 79.3198 10.7956 81.3198 10.9673C83.323 11.1387 85.1332 11.9972 86.4132 13.3793C87.4998 14.5562 88.0625 15.9661 88.1225 17.3792C89.7213 17.7147 91.1432 18.5 92.2048 19.6485ZM87.3895 25.0023C88.0625 24.5069 88.1605 23.6202 87.6044 23.0206C87.3389 22.7338 86.9598 22.5534 86.543 22.5168C86.1228 22.4802 85.7152 22.5931 85.3926 22.832C84.7228 23.3218 83.8855 23.5104 83.0924 23.4122C82.3751 23.3246 81.6927 23.0068 81.1966 22.4717C80.7388 21.9763 80.5173 21.3796 80.5173 20.7828C80.5173 20.6871 80.5236 20.5914 80.5331 20.4957C80.6152 19.8314 80.9754 19.1953 81.601 18.7365C82.2709 18.2439 82.3657 17.3544 81.8127 16.7576C81.5442 16.4677 81.1682 16.2876 80.7514 16.251C80.3343 16.2172 79.9267 16.327 79.601 16.5662C78.9311 17.0588 78.8332 17.9483 79.3861 18.5451C79.9011 19.1021 80.1192 19.7946 80.056 20.462C79.9896 21.146 79.6263 21.8074 78.9845 22.2803L71.7932 27.5666C72.2419 27.8987 72.615 28.2393 72.9149 28.5658C73.2561 28.9346 73.5503 29.323 73.8059 29.7284L80.9846 24.4506C81.5568 24.0312 82.2832 23.8172 83.0226 23.8482C83.0731 23.851 83.1208 23.851 83.1679 23.8564C83.9546 23.9239 84.6782 24.2676 85.1806 24.8134C85.4492 25.1008 85.8252 25.2807 86.2422 25.3144C86.6596 25.3513 87.0672 25.2415 87.3895 25.0023ZM73.8157 49.6458C73.8157 47.5318 73.4112 45.432 72.6276 43.3859C70.22 48.1426 66.5106 52.5003 63.6385 54.6114C60.6652 56.7985 56.9084 58.0004 53.06 58.0004C48.0677 58.0004 43.3852 56.0329 40.216 52.6013C34.3799 46.2905 35.3909 36.9259 42.4689 31.721C44.9903 29.866 49.2653 27.9238 53.878 26.6571C49.1831 24.808 44.1716 23.7778 39.4448 23.7778C23.4317 23.7778 10.4045 35.3831 10.4045 49.6458C10.4045 61.2682 18.8186 66.0083 39.4448 66.0083C62.2514 66.0083 73.8157 60.5028 73.8157 49.6458ZM67.4174 40.7146C69.3069 36.7454 69.6509 33.3848 68.3179 31.9408C67.4935 31.0513 65.7049 30.5587 63.2783 30.5587C57.4617 30.5587 49.6416 33.3285 46.2607 35.8168C41.7172 39.158 41.0663 45.1733 44.8136 49.2269C46.8516 51.4309 49.8564 52.692 53.0603 52.692C55.528 52.692 57.9388 51.9207 59.8472 50.5189C62.4789 48.582 65.5911 44.5512 67.4174 40.7146Z" fill="#057DCD"/>
</svg>
