<svg width="70" height="62" viewBox="0 0 70 62" fill="none" xmlns="http://www.w3.org/2000/svg">
<path d="M22.0286 29.5953C20.6557 27.0058 20.1528 24.2077 19.6585 21.4672C19.2264 19.0646 18.7799 16.5827 17.7379 14.3145C14.8591 8.05908 7.90492 3.85424 0.431915 3.8504L0.387114 3.84912C0.303294 4.1192 0.241152 4.39953 0.219474 4.69777L0.0677305 6.90067C-0.719891 18.2544 5.41055 28.3127 15.9112 33.4584C17.8333 31.9723 19.8869 30.6961 22.0286 29.5953Z" fill="#057DCD"/>
<path d="M20.4143 13.3494C21.5835 15.8889 22.0561 18.5206 22.5142 21.064C22.9795 23.6496 23.429 26.1457 24.5851 28.3831C29.4987 26.2903 34.8444 25.1805 40.3838 25.1805C40.3997 25.1805 40.4141 25.1818 40.43 25.1818C38.4024 11.1247 25.5476 0.946045 8.94542 0.946045C8.20982 0.946045 7.46845 0.966525 6.7184 1.00749L4.2327 1.14317C3.72255 1.17005 3.25287 1.27245 2.81787 1.42477C10.4889 2.2107 17.3983 6.79698 20.4143 13.3494Z" fill="#057DCD"/>
<path d="M41.5558 43.4616C48.7311 49.8169 60.4082 49.8169 67.5835 43.4616L69.4304 41.9077C69.1269 41.3048 68.7338 40.7211 68.202 40.1886L66.5502 38.5374C59.5989 31.5767 50.3078 27.7405 40.3853 27.7405C30.4627 27.7405 21.1687 31.5754 14.2189 38.5374L12.5685 40.1886C11.5265 41.2318 10.9499 42.4504 10.7852 43.6958L11.2043 43.4066C19.5949 36.0337 33.1926 36.0529 41.5558 43.4616Z" fill="#057DCD"/>
<path d="M69.5994 45.2947C65.6006 48.8378 60.2534 50.8013 54.5695 50.8013C48.8857 50.8013 43.5371 48.8378 39.5122 45.2729C36.0337 42.1919 31.3571 40.4946 26.3481 40.4946C21.3392 40.4946 16.6626 42.1919 13.184 45.2729L13.0496 45.3753L11.207 46.6502C11.5163 47.3401 11.9657 48.0019 12.5669 48.6048L14.2173 50.2573C21.1686 57.218 30.4611 61.0529 40.3837 61.0529C50.3063 61.0529 59.5988 57.2193 66.5486 50.2586L68.2004 48.6061C69.2814 47.5232 69.8624 46.2509 69.9982 44.958L69.5994 45.2947Z" fill="#057DCD"/>
</svg>
