<svg width="81" height="57" viewBox="0 0 81 57" fill="none" xmlns="http://www.w3.org/2000/svg">
<g clip-path="url(#clip0_60_1112)">
<path d="M80.9239 48.2718C79.8608 46.0007 76.8992 44.9208 74.3173 45.8671L71.5203 46.8914L66.6223 35.547C72.6847 31.6505 74.8236 24.3808 70.9887 18.5361L60.0284 1.78119C59.0159 0.233733 56.8517 -0.41197 54.9659 0.267132L40.4998 5.54409L26.0337 0.267132C24.148 -0.423103 21.9837 0.233733 20.9712 1.78119L10.0109 18.5361C6.18875 24.3808 8.315 31.6505 14.3773 35.5359L9.47937 46.8802L6.68234 45.856C4.10047 44.9097 1.15156 45.9896 0.0757809 48.2607C-0.139375 48.7171 0.101093 49.2404 0.62 49.4296L21.1611 56.9332C21.68 57.1224 22.2622 56.9109 22.4773 56.4544C23.5405 54.1833 22.3255 51.5783 19.7436 50.632L16.9466 49.6078L21.9331 38.0742C22.49 38.1298 23.0469 38.2189 23.5911 38.2189C30.1344 38.2189 36.1714 34.5339 37.9433 28.7226L40.4998 20.3285L43.0564 28.7226C44.8283 34.5339 50.8653 38.2189 57.4086 38.2189C57.9528 38.2189 58.5097 38.1298 59.0666 38.0742L64.0405 49.6078L61.2434 50.632C58.6616 51.5783 57.4339 54.1833 58.5097 56.4544C58.7248 56.9109 59.3197 57.1224 59.8259 56.9332L80.3797 49.4296C80.8859 49.2404 81.1391 48.7283 80.9239 48.2718ZM34.9184 18.0462L20.7308 12.8695L25.3503 5.81127L37.3105 10.1753L34.9184 18.0462ZM46.0812 18.0462L43.6892 10.1753L55.6494 5.81127L60.2689 12.8695L46.0812 18.0462Z" fill="#057DCD"/>
</g>
<defs>
<clipPath id="clip0_60_1112">
<rect width="81" height="57" fill="white"/>
</clipPath>
</defs>
</svg>
