<svg width="75" height="58" viewBox="0 0 75 58" fill="none" xmlns="http://www.w3.org/2000/svg">
<g clip-path="url(#clip0_60_1220)">
<path d="M42.5913 10.875C30.8765 10.875 20.646 17.0794 14.952 22.3878L3.58089 14.9055C2.00147 13.8656 -0.356608 14.9735 0.047038 16.5663L3.19548 29L0.0457359 41.4349C-0.35791 43.0276 2.00016 44.1344 3.57959 43.0956L14.9507 35.6134C20.6447 40.9206 30.8765 47.125 42.5913 47.125C60.4898 47.125 75.0002 32.625 75.0002 29C75.0002 25.375 60.4898 10.875 42.5913 10.875ZM53.9754 31.7188C52.2502 31.7188 50.8504 30.501 50.8504 29C50.8504 27.4979 52.2502 26.2812 53.9754 26.2812C55.702 26.2812 57.1004 27.4979 57.1004 29C57.1004 30.501 55.7007 31.7188 53.9754 31.7188Z" fill="#057DCD"/>
</g>
<defs>
<clipPath id="clip0_60_1220">
<rect width="75" height="58" fill="white"/>
</clipPath>
</defs>
</svg>
