<svg width="64" height="63" viewBox="0 0 64 63" fill="none" xmlns="http://www.w3.org/2000/svg">
<path d="M55.1994 18.7739C47.8726 16.1511 42.5316 17.8353 38.603 19.4258C36.9358 20.1008 35.7338 20.6214 34.7827 20.991C35.192 18.2899 36.4364 15.6651 38.5234 13.1441C41.2916 9.80002 44.5578 7.89252 44.5905 7.87377C45.76 7.20182 46.0709 5.84985 45.2844 4.85152C44.4968 3.85144 42.9061 3.58523 41.7328 4.25609C41.5723 4.34788 37.7658 6.54753 34.453 10.4957C33.7177 11.3722 33.065 12.267 32.4925 13.1766C32.0054 12.3978 31.4791 11.7234 30.9345 11.1402C32.2301 7.58402 29.807 3.53901 25.2114 1.84343C16.8096 -1.2547 7.63395 0.13848 1.59862 1.77127C0.845356 1.97664 0.201639 2.67214 0.0388538 3.46619C-0.123931 4.25827 0.235936 4.94766 0.9096 5.13364C5.45043 6.39273 11.9705 9.16709 18.4036 15.2495C20.9683 17.6775 24.937 16.8708 27.7653 14.9192C28.5889 16.1282 29.9954 18.6509 29.6235 21.0926C28.6317 20.7193 27.3601 20.1632 25.5308 19.4232C21.6038 17.8347 16.2672 16.1504 8.93905 18.7735C-0.0678777 21.9981 -2.57185 34.3393 3.34805 46.3381C9.26744 58.3368 21.3683 65.4477 30.3778 62.2236C30.3788 62.2231 30.3801 62.2227 30.3811 62.2223C31.4615 61.8364 32.6788 61.8364 33.7587 62.2225C33.7597 62.2229 33.7607 62.2231 33.7617 62.2236C42.7699 65.4477 54.8726 58.3368 60.7915 46.3381C66.7101 34.3393 64.2082 21.9981 55.1994 18.7739ZM19.1451 24.5199C14.0814 24.5199 9.96158 28.0293 9.96158 32.3427C9.96158 33.2459 9.10235 33.9778 8.04194 33.9778C6.98153 33.9778 6.12231 33.2459 6.12231 32.3427C6.12231 26.2258 11.9641 21.2496 19.1451 21.2496C20.2055 21.2496 21.0647 21.9815 21.0647 22.8848C21.0647 23.788 20.2055 24.5199 19.1451 24.5199Z" fill="#057DCD"/>
</svg>
