<svg width="80" height="80" viewBox="0 0 80 80" fill="none" xmlns="http://www.w3.org/2000/svg">
<path d="M61.7076 18.4082H27.6218C15.7162 18.4082 6.02979 28.0945 6.02979 40.0001C6.02979 51.906 15.7162 61.5921 27.6218 61.5921C35.6113 61.5921 42.9137 57.2063 46.6798 50.1463C46.6959 50.1162 46.7123 50.0865 46.7296 50.0566C47.7017 48.3851 51.4507 42.9313 58.8735 42.9313H61.7076C68.4688 42.9313 73.9696 37.4309 73.9696 30.6698C73.9696 23.9087 68.4688 18.4082 61.7076 18.4082Z" fill="#9BCBEB"/>
<path d="M27.622 67.622C12.3914 67.622 0 55.2307 0 40C0 24.7692 12.3914 12.3779 27.622 12.3779H61.7078C71.7941 12.3779 80 20.5837 80 30.6695C80 40.7559 71.7941 48.9612 61.7078 48.9612H58.8737C54.7328 48.9612 52.5708 52.0261 51.9684 53.0434C47.1439 62.0376 37.8208 67.622 27.622 67.622ZM27.622 18.8459C15.9578 18.8459 6.46766 28.3357 6.46766 40C6.46766 51.6645 15.9572 61.1543 27.622 61.1543C35.4497 61.1543 42.6041 56.8573 46.2934 49.9407C46.312 49.9057 46.3314 49.8711 46.3512 49.8365C47.3534 48.1139 51.218 42.4936 58.8737 42.4936H61.7078C68.2275 42.4936 73.532 37.1893 73.532 30.6698C73.532 24.1503 68.2275 18.8459 61.7078 18.8459H27.622Z" fill="#057DCD"/>
<path opacity="0.15" d="M9.44496 40C9.44496 28.3358 18.935 18.8459 30.5993 18.8459H27.6221C15.9579 18.8459 6.46777 28.3358 6.46777 40C6.46777 51.6645 15.9573 61.1544 27.6221 61.1544C28.1226 61.1544 28.6204 61.1361 29.1148 61.1016C18.1401 60.3369 9.44496 51.1655 9.44496 40Z" fill="#202020"/>
<path d="M14.83 25.1711C14.1047 25.1711 13.5166 25.759 13.5166 26.4846V30.1755C13.5166 30.901 14.1047 31.489 14.83 31.489C15.5554 31.489 16.1435 30.9011 16.1435 30.1755V26.4846C16.1435 25.759 15.5554 25.1711 14.83 25.1711Z" fill="#DFF2FF"/>
<path d="M14.83 33.3569C14.1047 33.3569 13.5166 33.9447 13.5166 34.6704V52.8043C13.5166 53.5297 14.1047 54.1177 14.83 54.1177C15.5554 54.1177 16.1435 53.5299 16.1435 52.8043V34.6702C16.1435 33.9447 15.5554 33.3569 14.83 33.3569Z" fill="#DFF2FF"/>
<path d="M23.1919 21.1011C22.4665 21.1011 21.8784 21.6889 21.8784 22.4145V57.5644C21.8784 58.2898 22.4665 58.8778 23.1919 58.8778C23.9173 58.8778 24.5053 58.29 24.5053 57.5644V22.4145C24.5053 21.6889 23.9173 21.1011 23.1919 21.1011Z" fill="#DFF2FF"/>
<path d="M31.5546 21.1011C30.8292 21.1011 30.2412 21.6889 30.2412 22.4145V44.0684C30.2412 44.7939 30.829 45.3819 31.5546 45.3819C32.28 45.3819 32.8681 44.794 32.8681 44.0684V22.4145C32.8679 21.6889 32.28 21.1011 31.5546 21.1011Z" fill="#DFF2FF"/>
<path d="M31.5546 47.4248C30.8292 47.4248 30.2412 48.0126 30.2412 48.7382V57.144C30.2412 57.8695 30.829 58.4574 31.5546 58.4574C32.28 58.4574 32.8681 57.8696 32.8681 57.144V48.7382C32.8679 48.0128 32.28 47.4248 31.5546 47.4248Z" fill="#DFF2FF"/>
<path d="M39.9165 22.1492C39.1912 22.1492 38.603 22.737 38.603 23.4626V53.257C38.603 53.9825 39.1912 54.5704 39.9165 54.5704C40.6419 54.5704 41.2299 53.9826 41.2299 53.257V23.4625C41.2299 22.737 40.6421 22.1492 39.9165 22.1492Z" fill="#DFF2FF"/>
<path d="M48.2788 21.6265C47.5535 21.6265 46.9653 22.2143 46.9653 22.9399V43.0455C46.9653 43.771 47.5535 44.359 48.2788 44.359C49.0042 44.359 49.5922 43.7712 49.5922 43.0455V22.9399C49.5922 22.2144 49.0042 21.6265 48.2788 21.6265Z" fill="#DFF2FF"/>
<path d="M56.6411 21.1011C55.9156 21.1011 55.3276 21.6889 55.3276 22.4145V30.6425C55.3276 31.3679 55.9154 31.9559 56.6411 31.9559C57.3664 31.9559 57.9545 31.3681 57.9545 30.6425V22.4145C57.9545 21.6889 57.3664 21.1011 56.6411 21.1011Z" fill="#DFF2FF"/>
<path d="M56.6411 33.7656C55.9156 33.7656 55.3276 34.3534 55.3276 35.0791V39.5205C55.3276 40.2459 55.9154 40.8339 56.6411 40.8339C57.3664 40.8339 57.9545 40.2461 57.9545 39.5205V35.0791C57.9545 34.3534 57.3664 33.7656 56.6411 33.7656Z" fill="#DFF2FF"/>
<path d="M65.0029 21.6265C64.2776 21.6265 63.6895 22.2143 63.6895 22.9399V38.6868C63.6895 39.4122 64.2776 40.0002 65.0029 40.0002C65.7283 40.0002 66.3163 39.4124 66.3163 38.6868V22.9399C66.3162 22.2144 65.7283 21.6265 65.0029 21.6265Z" fill="#DFF2FF"/>
</svg>
