<svg width="75" height="66" viewBox="0 0 75 66" fill="none" xmlns="http://www.w3.org/2000/svg">
<path d="M43.7689 49.4998H0.019043L1.58232 43.9991C1.58232 43.9991 0.019043 35.7494 0.019043 24.7502C0.019043 13.7491 1.58232 5.49923 1.58232 5.49923L0.019043 0.000732422H43.7689L42.2057 5.49923C42.2057 5.49923 43.7689 13.7491 43.7689 24.7502C43.7689 35.7494 42.2057 43.9991 42.2057 43.9991L43.7689 49.4998Z" fill="#9BCBEB"/>
<path d="M1.58232 43.9989C1.58232 43.9989 0.019043 35.7492 0.019043 24.75C0.019043 13.7489 1.58232 5.49902 1.58232 5.49902H42.2057C42.2057 5.49902 43.7689 13.7489 43.7689 24.75C43.7689 35.7492 42.2057 43.9989 42.2057 43.9989H1.58232Z" fill="#057DCD"/>
<path d="M33.174 18.9193C29.1526 17.8759 27.6627 23.1791 21.8949 23.7713C16.1272 23.1791 14.6348 17.876 10.6135 18.9193C6.57613 19.9646 7.25816 30.1359 15.7976 30.6957C17.9376 30.8368 20.0022 30.2023 21.8949 29.1752C23.7854 30.2023 25.85 30.8368 27.9923 30.6957C36.5317 30.1358 37.2114 19.9646 33.174 18.9193Z" fill="#DFF2FF"/>
<path d="M32.6064 18.8104C28.9992 18.3793 27.3812 23.2071 21.8949 23.7711C16.1272 23.1789 14.6348 17.8758 10.6135 18.9191C6.57613 19.9644 7.25816 30.1357 15.7976 30.6956C17.9376 30.8366 20.0022 30.2021 21.8949 29.175C28.6217 25.5697 32.6064 18.8104 32.6064 18.8104Z" fill="#9BCBEB"/>
<path d="M58.4447 47.5842C61.0517 46.6013 59.2297 43.2719 61.942 40.7724C65.2403 38.8932 68.6161 41.0886 70.1998 39.0201C71.7905 36.9414 66.4508 31.9002 61.7268 34.8508C60.5412 35.59 59.7768 36.7037 59.2939 37.9566C57.8062 38.1399 56.4191 38.5931 55.3731 39.4792C51.1986 43.0141 55.8286 48.5711 58.4447 47.5842Z" fill="#9BCBEB"/>
<path d="M58.4447 47.5843C58.5705 47.5359 58.6873 47.4836 58.795 47.4252C58.795 47.4252 57.5567 42.3899 59.2939 37.9568C57.8062 38.1401 56.4191 38.5933 55.3731 39.4794C51.1986 43.0142 55.8286 48.5712 58.4447 47.5843Z" fill="#C9E9FF"/>
<path d="M25.6075 36.8549C25.85 39.3424 30.0156 38.863 31.8604 41.9144C32.8559 45.258 29.4251 47.3908 31.1623 49.3627C32.9063 51.3445 40.0198 48.4624 38.317 43.5902C37.8913 42.3676 36.93 41.3787 35.7284 40.5832C35.9985 39.282 35.9435 37.9829 35.3164 36.8288C32.8102 32.2326 25.3625 34.3596 25.6075 36.8549Z" fill="#C9E9FF"/>
<path d="M31.8606 41.9143C32.8561 45.2579 29.4253 47.3908 31.1625 49.3627C32.9065 51.3445 40.0199 48.4624 38.3172 43.5901C37.8915 42.3676 36.9301 41.3786 35.7285 40.5831C31.492 37.7411 25.6716 37.1973 25.6694 37.1973C26.2508 39.3041 30.1051 39.0121 31.8606 41.9143Z" fill="#9BCBEB"/>
<path d="M53.5743 30.1802C50.7659 30.5387 51.551 34.1683 48.1956 35.9669C44.4603 37.0343 41.8419 34.1461 39.7064 35.7857C37.5597 37.4331 41.24 43.5158 46.6713 41.7373C48.0332 41.2922 49.0974 40.39 49.9306 39.2882C51.4228 39.4493 52.8944 39.3265 54.1671 38.7081C59.2344 36.2409 56.3894 29.8217 53.5743 30.1802Z" fill="#C9E9FF"/>
<path d="M53.1897 30.2546C50.8322 30.8871 51.3884 34.2568 48.1956 35.9667C44.4603 37.0341 41.8419 34.1459 39.7064 35.7855C37.5597 37.4329 41.24 43.5156 46.6713 41.7371C48.0332 41.292 49.0974 40.3898 49.9306 39.288C52.9105 35.4008 53.1897 30.2546 53.1897 30.2546Z" fill="#9BCBEB"/>
<path d="M21.8952 48.124C21.0322 48.124 20.332 48.7403 20.332 49.4997H23.4563C23.4561 48.7403 22.758 48.124 21.8952 48.124Z" fill="#DFF2FF"/>
<path d="M15.6443 48.124C14.7814 48.124 14.0811 48.7403 14.0811 49.4997H17.2075C17.2075 48.7403 16.5071 48.124 15.6443 48.124Z" fill="#DFF2FF"/>
<path d="M9.39395 48.124C8.53115 48.124 7.83301 48.7403 7.83301 49.4997H10.9572C10.9572 48.7403 10.2569 48.124 9.39395 48.124Z" fill="#DFF2FF"/>
<path d="M3.14565 48.124C2.28271 48.124 1.58252 48.7403 1.58252 49.4997H4.70674C4.70659 48.7403 4.00859 48.124 3.14565 48.124Z" fill="#DFF2FF"/>
<path d="M9.3938 1.37436C10.2567 1.37436 10.9571 0.758057 10.9571 0.000732422H7.83301C7.83301 0.758057 8.53101 1.37436 9.3938 1.37436Z" fill="#DFF2FF"/>
<path d="M15.6443 1.37436C16.5073 1.37436 17.2075 0.758057 17.2075 0.000732422H14.0811C14.0811 0.758057 14.7814 1.37436 15.6443 1.37436Z" fill="#DFF2FF"/>
<path d="M21.8953 1.37436C22.7583 1.37436 23.4563 0.758057 23.4563 0.000732422H20.332C20.332 0.758057 21.0324 1.37436 21.8953 1.37436Z" fill="#DFF2FF"/>
<path d="M28.1435 1.37436C29.0064 1.37436 29.7067 0.758057 29.7067 0.000732422H26.5825C26.5825 0.758057 27.2807 1.37436 28.1435 1.37436Z" fill="#DFF2FF"/>
<path d="M34.3938 1.37436C35.2568 1.37436 35.957 0.758057 35.957 0.000732422H32.8306C32.8306 0.758057 33.5311 1.37436 34.3938 1.37436Z" fill="#DFF2FF"/>
<path d="M40.6447 1.37436C41.5076 1.37436 42.2056 0.758057 42.2056 0.000732422H39.0815C39.0815 0.758057 39.7817 1.37436 40.6447 1.37436Z" fill="#DFF2FF"/>
<path d="M3.14565 1.37436C4.00859 1.37436 4.70659 0.758057 4.70659 0.000732422H1.58252C1.58252 0.758057 2.28286 1.37436 3.14565 1.37436Z" fill="#DFF2FF"/>
<path d="M21.895 38.4985V42.6416C21.895 52.1745 28.3837 60.372 37.6877 64.0034C37.5801 64.1888 37.5183 64.4002 37.5183 64.6237C37.5183 65.3831 38.2187 65.9994 39.0816 65.9994H57.8312C58.6941 65.9994 59.3944 65.3831 59.3944 64.6237C59.3944 64.3941 59.3303 64.1805 59.2182 63.9892C68.5039 60.3538 74.981 52.1623 74.981 42.6416V38.4985H21.895Z" fill="#057DCD"/>
<path opacity="0.2" d="M71.8545 38.4985V42.6416C71.8545 52.1623 65.3797 60.3538 56.0917 63.9892C56.204 64.1805 56.268 64.3941 56.268 64.6237C56.268 65.3831 55.5698 65.9994 54.707 65.9994H57.8313C58.6942 65.9994 59.3945 65.3831 59.3945 64.6237C59.3945 64.3941 59.3304 64.1805 59.2183 63.9892C68.504 60.3538 74.9811 52.1623 74.9811 42.6416V38.4985H71.8545Z" fill="#DFF2FF"/>
<g opacity="0.1">
<path opacity="0.1" d="M3.14546 24.7502C3.14546 13.7491 4.7064 5.49923 4.7064 5.49923L3.14546 0.000732422H0.019043L1.58232 5.49923C1.58232 5.49923 0.019043 13.7491 0.019043 24.7502C0.019043 35.7494 1.58232 43.9991 1.58232 43.9991L0.019043 49.4998H3.14546L4.7064 43.9991C4.7064 43.9991 3.14546 35.7494 3.14546 24.7502Z" fill="black"/>
</g>
</svg>
