<svg width="89" height="67" viewBox="0 0 89 67" fill="none" xmlns="http://www.w3.org/2000/svg">
<g clip-path="url(#clip0_60_1210)">
<path d="M32.8491 39.6003C33.6192 46.941 35.1993 53.3261 35.1993 53.3261L33.7176 55.9907C32.5075 58.1669 31.8843 60.5027 31.8843 62.8622V63.5858C31.8843 64.7344 33.1211 65.6655 34.6468 65.6655H54.3529C55.8786 65.6655 57.1154 64.7344 57.1154 63.5858V62.8622C57.1154 60.5029 56.4922 58.1671 55.282 55.9907L53.8004 53.3261C53.8004 53.3261 55.3806 46.941 56.1506 39.6003H32.8491Z" fill="#DFF2FF"/>
<path d="M56.5626 32.391C56.5626 29.9675 56.2224 27.8089 55.6919 25.8748H33.3074C32.7769 27.8089 32.4365 29.9675 32.4365 32.391C32.4365 34.7724 32.6007 37.2358 32.8489 39.6004H56.1504C56.3985 37.2358 56.5626 34.7724 56.5626 32.391Z" fill="#057DCD"/>
<path d="M39.2511 13.3967C38.2815 16.2119 34.9169 20.008 33.3076 25.8746H55.6922C54.0829 20.008 50.7183 16.2119 49.7487 13.3967C48.5071 9.7918 48.8027 5.80276 48.8262 5.51261C49.7581 5.13997 50.3931 4.4027 50.3931 3.55306C50.3931 2.32797 49.0739 1.33472 47.4464 1.33472H41.5531C39.9257 1.33472 38.6063 2.32784 38.6063 3.55306C38.6063 4.4027 39.2415 5.13997 40.1732 5.51261C40.1971 5.80276 40.4927 9.7918 39.2511 13.3967Z" fill="#DFF2FF"/>
<path d="M56.9175 55.4752L55.6379 53.174C55.9928 51.657 57.2583 45.995 57.918 39.7054C58.1953 37.063 58.3359 34.602 58.3359 32.3908C58.3359 30.0503 58.0391 27.8305 57.4285 25.6045C56.391 21.8221 54.6656 18.8936 53.2792 16.5405C52.4833 15.1896 51.7961 14.0232 51.465 13.0617C50.5503 10.406 50.5235 7.47891 50.5638 6.22046C51.5712 5.55459 52.1661 4.58923 52.1661 3.553C52.1661 1.59385 50.0489 0 47.4467 0H41.5533C38.9509 0 36.8337 1.59385 36.8337 3.553C36.8337 4.58937 37.4287 5.55459 38.436 6.22046C38.4764 7.47891 38.4497 10.4058 37.5349 13.0617C37.2037 14.0232 36.5165 15.1896 35.7206 16.5405C34.3342 18.8936 32.6088 21.8221 31.5713 25.6045C30.9607 27.8305 30.6639 30.0503 30.6639 32.3908C30.6639 34.6019 30.8045 37.063 31.0818 39.7054C31.7417 45.995 33.007 51.657 33.362 53.174L32.0823 55.4752C30.7746 57.827 30.1113 60.3123 30.1113 62.862V63.5857C30.1113 65.4683 32.1459 67 34.6468 67H54.3527C56.8535 67 58.8881 65.4683 58.8881 63.5857V62.862C58.8883 60.3125 58.2252 57.8271 56.9175 55.4752ZM34.2098 32.3908C34.2098 30.6079 34.3963 28.9026 34.778 27.2092H54.222C54.6037 28.9026 54.7902 30.6079 54.7902 32.3908C54.7902 34.1869 54.694 36.1584 54.5035 38.2657H34.4964C34.306 36.1584 34.2098 34.1869 34.2098 32.3908ZM38.962 17.6227C39.8212 16.1645 40.5632 14.9052 40.9674 13.7317C42.2646 9.96458 41.9799 5.88412 41.9432 5.43127C41.9056 4.96748 41.5503 4.55186 41.0053 4.33391C40.6194 4.17949 40.3795 3.88039 40.3795 3.553C40.3795 3.06572 40.906 2.66932 41.5533 2.66932H47.4467C48.0938 2.66932 48.6205 3.06572 48.6205 3.553C48.6205 3.88026 48.3806 4.17936 47.9947 4.33391C47.4497 4.55186 47.0944 4.96748 47.0568 5.43127C47.0201 5.88425 46.7354 9.96471 48.0326 13.7317C48.4368 14.9052 49.1788 16.1646 50.0379 17.6227C51.1476 19.5063 52.486 21.7779 53.4545 24.5399H35.5455C36.514 21.7779 37.8522 19.5063 38.962 17.6227ZM55.3425 63.5857C55.3425 63.9965 54.8986 64.3307 54.3528 64.3307H34.647C34.1013 64.3307 33.6573 63.9965 33.6573 63.5857V62.862C33.6573 60.6681 34.2278 58.5297 35.3533 56.506L36.4564 54.5221H42.29C43.2692 54.5221 44.0629 53.9245 44.0629 53.1875C44.0629 52.4505 43.2692 51.8528 42.29 51.8528H36.6585C36.2155 49.8609 35.3515 45.6702 34.7794 40.935H54.2206C53.427 47.5023 52.0722 53.0228 52.0575 53.0817C51.9943 53.3375 52.0316 53.6016 52.1651 53.8414L53.6467 56.506C54.772 58.5297 55.3425 60.6682 55.3425 62.862V63.5857Z" fill="#057DCD"/>
<path d="M45.4209 34.3838H38.0542C37.075 34.3838 36.2812 34.9815 36.2812 35.7185C36.2812 36.4555 37.075 37.0531 38.0542 37.0531H45.4209C46.4001 37.0531 47.1939 36.4555 47.1939 35.7185C47.1939 34.9815 46.4001 34.3838 45.4209 34.3838Z" fill="#057DCD"/>
<path d="M51.1301 34.3838H50.6582C49.679 34.3838 48.8853 34.9815 48.8853 35.7185C48.8853 36.4555 49.679 37.0531 50.6582 37.0531H51.1301C52.1093 37.0531 52.903 36.4555 52.903 35.7185C52.903 34.9815 52.1093 34.3838 51.1301 34.3838Z" fill="#057DCD"/>
</g>
<defs>
<clipPath id="clip0_60_1210">
<rect width="89" height="67" fill="white"/>
</clipPath>
</defs>
</svg>
